<svg width="200" height="200" viewBox="0 0 200 200" fill="none" xmlns="http://www.w3.org/2000/svg">
<g clip-path="url(#clip0_8_2)">
<circle cx="100" cy="100" r="100" fill="#FF1E1E"/>
<g filter="url(#filter0_d_8_2)">
<path d="M38.672 42.2H50.512C54.4373 42.2 57.3387 43.2027 59.216 45.208C61.0933 47.1707 62.032 50.136 62.032 54.104C62.032 57.0907 61.456 59.6933 60.304 61.912C59.152 64.1307 57.5093 65.6667 55.376 66.52L64.272 87H58.768L50.064 67.352H44.176V87H38.672V42.2ZM48.848 63.128C51.28 63.128 53.1573 62.296 54.48 60.632C55.8453 58.9253 56.528 56.7493 56.528 54.104C56.528 51.5867 55.8667 49.688 54.544 48.408C53.264 47.0853 51.3653 46.424 48.848 46.424H44.304V63.128H48.848ZM76.0585 87C73.7118 87 71.8345 86.296 70.4265 84.888C69.0612 83.48 68.3785 81.5813 68.3785 79.192V62.168C68.3785 59.3947 69.1465 57.2187 70.6825 55.64C72.2185 54.0613 74.5012 53.272 77.5305 53.272C80.5598 53.272 82.8212 54.0613 84.3145 55.64C85.8505 57.2187 86.6185 59.3947 86.6185 62.168V65.112C86.6185 66.904 86.1065 68.2693 85.0825 69.208C84.0585 70.104 82.7145 70.7867 81.0505 71.256L73.4985 73.368V79.64C73.4985 80.664 73.7972 81.5173 74.3945 82.2C75.0345 82.84 75.8452 83.16 76.8265 83.16H83.7385V87H76.0585ZM77.4025 68.248C78.8105 67.864 79.7492 67.5867 80.2185 67.416C80.7305 67.2027 81.0718 66.904 81.2425 66.52C81.4132 66.136 81.4985 65.496 81.4985 64.6V61.08C81.4985 59.7147 81.1358 58.712 80.4105 58.072C79.7278 57.432 78.7678 57.112 77.5305 57.112C76.3358 57.112 75.3545 57.4533 74.5865 58.136C73.8612 58.8187 73.4985 59.8 73.4985 61.08V69.336L77.4025 68.248ZM47.12 157C44.7733 157 42.9173 156.296 41.552 154.888C40.1867 153.48 39.504 151.581 39.504 149.192V127.56H35.664V123.72H39.504V114.056L44.624 112.136V123.72H49.744V127.56H44.624V149.64C44.624 150.664 44.9013 151.517 45.456 152.2C46.0533 152.84 46.8427 153.16 47.824 153.16H49.744V157H47.12ZM54.84 112.2H59.96V125.448L62.776 124.616C64.5253 124.104 65.8053 123.763 66.616 123.592C67.4693 123.379 68.344 123.272 69.24 123.272C70.776 123.272 71.9067 123.805 72.632 124.872C73.3573 125.939 73.72 127.325 73.72 129.032V157H68.6V130.696C68.6 129.459 68.5147 128.605 68.344 128.136C68.1733 127.624 67.7467 127.368 67.064 127.368C66.7227 127.368 64.3547 128.051 59.96 129.416V157H54.84V112.2ZM81.465 118.28V113.16H86.585V118.28H81.465ZM81.465 157V123.72H86.585V157H81.465ZM94.2775 123.72H98.2455L98.8215 125.576L101.446 124.808C103.238 124.253 104.646 123.869 105.67 123.656C106.736 123.4 107.739 123.272 108.678 123.272C110.214 123.272 111.344 123.805 112.07 124.872C112.795 125.939 113.158 127.325 113.158 129.032V157H108.038V130.696C108.038 129.459 107.952 128.605 107.782 128.136C107.611 127.624 107.184 127.368 106.502 127.368C106.16 127.368 103.792 128.051 99.3975 129.416V157H94.2775V123.72ZM120.15 157V112.2H125.27V137.288L135.19 123.72H139.99L130.518 137.288L140.438 157H135.638L127.51 140.232L125.27 143.24V157H120.15Z" fill="black"/>
</g>
</g>
<defs>
<filter id="filter0_d_8_2" x="31.664" y="42.2" width="112.773" height="122.8" filterUnits="userSpaceOnUse" color-interpolation-filters="sRGB">
<feFlood flood-opacity="0" result="BackgroundImageFix"/>
<feColorMatrix in="SourceAlpha" type="matrix" values="0 0 0 0 0 0 0 0 0 0 0 0 0 0 0 0 0 0 127 0" result="hardAlpha"/>
<feOffset dy="4"/>
<feGaussianBlur stdDeviation="2"/>
<feComposite in2="hardAlpha" operator="out"/>
<feColorMatrix type="matrix" values="0 0 0 0 0 0 0 0 0 0 0 0 0 0 0 0 0 0 0.25 0"/>
<feBlend mode="normal" in2="BackgroundImageFix" result="effect1_dropShadow_8_2"/>
<feBlend mode="normal" in="SourceGraphic" in2="effect1_dropShadow_8_2" result="shape"/>
</filter>
<clipPath id="clip0_8_2">
<rect width="200" height="200" fill="white"/>
</clipPath>
</defs>
</svg>
